<mxfile host="app.diagrams.net" agent="Mozilla/5.0 (Windows NT 10.0; Win64; x64) AppleWebKit/537.36 (KHTML, like Gecko) Chrome/138.0.0.0 Safari/537.36" version="28.0.7">
  <diagram name="Page-1" id="oJSLKRkyDO2sJD-oDxUU">
    <mxGraphModel dx="1042" dy="562" grid="1" gridSize="10" guides="1" tooltips="1" connect="1" arrows="1" fold="1" page="1" pageScale="1" pageWidth="850" pageHeight="1100" math="0" shadow="0">
      <root>
        <mxCell id="0" />
        <mxCell id="1" parent="0" />
        <mxCell id="Cg_n_9xX_iZ1i6xH1ZP4-1" value="" style="rounded=0;whiteSpace=wrap;html=1;fillColor=#dae8fc;strokeColor=#6c8ebf;" vertex="1" parent="1">
          <mxGeometry x="210" y="20" width="430" height="60" as="geometry" />
        </mxCell>
        <mxCell id="Cg_n_9xX_iZ1i6xH1ZP4-2" value="" style="rounded=0;whiteSpace=wrap;html=1;fillColor=#dae8fc;strokeColor=#6c8ebf;" vertex="1" parent="1">
          <mxGeometry x="120" y="130" width="120" height="50" as="geometry" />
        </mxCell>
        <mxCell id="Cg_n_9xX_iZ1i6xH1ZP4-4" value="" style="endArrow=classic;html=1;rounded=0;exitX=0.5;exitY=1;exitDx=0;exitDy=0;" edge="1" parent="1" source="Cg_n_9xX_iZ1i6xH1ZP4-2">
          <mxGeometry width="50" height="50" relative="1" as="geometry">
            <mxPoint x="130" y="270" as="sourcePoint" />
            <mxPoint x="180" y="230" as="targetPoint" />
            <Array as="points" />
          </mxGeometry>
        </mxCell>
        <mxCell id="Cg_n_9xX_iZ1i6xH1ZP4-5" value="" style="ellipse;whiteSpace=wrap;html=1;aspect=fixed;fillColor=#dae8fc;strokeColor=#6c8ebf;" vertex="1" parent="1">
          <mxGeometry x="135" y="230" width="90" height="90" as="geometry" />
        </mxCell>
        <mxCell id="Cg_n_9xX_iZ1i6xH1ZP4-7" value="" style="endArrow=classic;html=1;rounded=0;exitX=0.398;exitY=1.011;exitDx=0;exitDy=0;exitPerimeter=0;" edge="1" parent="1">
          <mxGeometry width="50" height="50" relative="1" as="geometry">
            <mxPoint x="180.31999999999994" y="320" as="sourcePoint" />
            <mxPoint x="180" y="370" as="targetPoint" />
          </mxGeometry>
        </mxCell>
        <mxCell id="Cg_n_9xX_iZ1i6xH1ZP4-8" value="" style="ellipse;whiteSpace=wrap;html=1;aspect=fixed;fillColor=#dae8fc;strokeColor=#6c8ebf;" vertex="1" parent="1">
          <mxGeometry x="135" y="370" width="90" height="90" as="geometry" />
        </mxCell>
        <mxCell id="Cg_n_9xX_iZ1i6xH1ZP4-12" value="" style="endArrow=classic;html=1;rounded=0;" edge="1" parent="1">
          <mxGeometry width="50" height="50" relative="1" as="geometry">
            <mxPoint x="240" y="160" as="sourcePoint" />
            <mxPoint x="300" y="160" as="targetPoint" />
          </mxGeometry>
        </mxCell>
        <mxCell id="Cg_n_9xX_iZ1i6xH1ZP4-13" value="" style="ellipse;whiteSpace=wrap;html=1;aspect=fixed;fillColor=#dae8fc;strokeColor=#6c8ebf;" vertex="1" parent="1">
          <mxGeometry x="300" y="107.5" width="90" height="90" as="geometry" />
        </mxCell>
        <mxCell id="Cg_n_9xX_iZ1i6xH1ZP4-21" value="" style="endArrow=classic;html=1;rounded=0;exitX=0.5;exitY=1;exitDx=0;exitDy=0;" edge="1" parent="1" source="Cg_n_9xX_iZ1i6xH1ZP4-13">
          <mxGeometry width="50" height="50" relative="1" as="geometry">
            <mxPoint x="350" y="260" as="sourcePoint" />
            <mxPoint x="345" y="250" as="targetPoint" />
          </mxGeometry>
        </mxCell>
        <mxCell id="Cg_n_9xX_iZ1i6xH1ZP4-22" value="" style="ellipse;whiteSpace=wrap;html=1;aspect=fixed;fillColor=#dae8fc;strokeColor=#6c8ebf;" vertex="1" parent="1">
          <mxGeometry x="295" y="250" width="100" height="100" as="geometry" />
        </mxCell>
        <mxCell id="Cg_n_9xX_iZ1i6xH1ZP4-24" value="" style="endArrow=classic;html=1;rounded=0;" edge="1" parent="1">
          <mxGeometry width="50" height="50" relative="1" as="geometry">
            <mxPoint x="390" y="280" as="sourcePoint" />
            <mxPoint x="500" y="180" as="targetPoint" />
          </mxGeometry>
        </mxCell>
        <mxCell id="Cg_n_9xX_iZ1i6xH1ZP4-25" value="" style="ellipse;whiteSpace=wrap;html=1;aspect=fixed;fillColor=#dae8fc;strokeColor=#6c8ebf;" vertex="1" parent="1">
          <mxGeometry x="490" y="110" width="85" height="85" as="geometry" />
        </mxCell>
        <mxCell id="Cg_n_9xX_iZ1i6xH1ZP4-27" value="" style="endArrow=classic;html=1;rounded=0;exitX=0.5;exitY=1;exitDx=0;exitDy=0;" edge="1" parent="1" source="Cg_n_9xX_iZ1i6xH1ZP4-25">
          <mxGeometry width="50" height="50" relative="1" as="geometry">
            <mxPoint x="530" y="250" as="sourcePoint" />
            <mxPoint x="533" y="260" as="targetPoint" />
          </mxGeometry>
        </mxCell>
        <mxCell id="Cg_n_9xX_iZ1i6xH1ZP4-31" value="" style="endArrow=classic;html=1;rounded=0;" edge="1" parent="1">
          <mxGeometry width="50" height="50" relative="1" as="geometry">
            <mxPoint x="560" y="270" as="sourcePoint" />
            <mxPoint x="670" y="170" as="targetPoint" />
          </mxGeometry>
        </mxCell>
        <mxCell id="Cg_n_9xX_iZ1i6xH1ZP4-33" value="" style="rounded=0;whiteSpace=wrap;html=1;fillColor=#dae8fc;strokeColor=#6c8ebf;" vertex="1" parent="1">
          <mxGeometry x="670" y="147.5" width="150" height="50" as="geometry" />
        </mxCell>
        <mxCell id="Cg_n_9xX_iZ1i6xH1ZP4-36" value="" style="rounded=0;whiteSpace=wrap;html=1;fillColor=#dae8fc;strokeColor=#6c8ebf;" vertex="1" parent="1">
          <mxGeometry x="670" y="210" width="150" height="50" as="geometry" />
        </mxCell>
        <mxCell id="Cg_n_9xX_iZ1i6xH1ZP4-38" value="" style="rounded=0;whiteSpace=wrap;html=1;fillColor=#dae8fc;strokeColor=#6c8ebf;" vertex="1" parent="1">
          <mxGeometry x="670" y="270" width="150" height="40" as="geometry" />
        </mxCell>
        <mxCell id="Cg_n_9xX_iZ1i6xH1ZP4-40" value="" style="rounded=0;whiteSpace=wrap;html=1;fillColor=#dae8fc;strokeColor=#6c8ebf;" vertex="1" parent="1">
          <mxGeometry x="670" y="330" width="150" height="40" as="geometry" />
        </mxCell>
        <mxCell id="Cg_n_9xX_iZ1i6xH1ZP4-44" value="" style="rounded=0;whiteSpace=wrap;html=1;fillColor=#dae8fc;strokeColor=#6c8ebf;" vertex="1" parent="1">
          <mxGeometry x="670" y="390" width="150" height="40" as="geometry" />
        </mxCell>
        <mxCell id="Cg_n_9xX_iZ1i6xH1ZP4-49" value="" style="rounded=0;whiteSpace=wrap;html=1;fillColor=#dae8fc;strokeColor=#6c8ebf;" vertex="1" parent="1">
          <mxGeometry x="670" y="450" width="150" height="40" as="geometry" />
        </mxCell>
        <mxCell id="Cg_n_9xX_iZ1i6xH1ZP4-50" value="" style="rounded=0;whiteSpace=wrap;html=1;fillColor=#dae8fc;strokeColor=#6c8ebf;" vertex="1" parent="1">
          <mxGeometry x="40" y="530" width="160" height="50" as="geometry" />
        </mxCell>
        <mxCell id="Cg_n_9xX_iZ1i6xH1ZP4-57" value="" style="rounded=0;whiteSpace=wrap;html=1;fillColor=#dae8fc;strokeColor=#6c8ebf;" vertex="1" parent="1">
          <mxGeometry x="670" y="510" width="150" height="40" as="geometry" />
        </mxCell>
        <mxCell id="Cg_n_9xX_iZ1i6xH1ZP4-58" value="" style="rounded=0;whiteSpace=wrap;html=1;fillColor=#dae8fc;strokeColor=#6c8ebf;" vertex="1" parent="1">
          <mxGeometry x="240" y="530" width="170" height="50" as="geometry" />
        </mxCell>
        <mxCell id="Cg_n_9xX_iZ1i6xH1ZP4-59" value="" style="rounded=0;whiteSpace=wrap;html=1;fillColor=#dae8fc;strokeColor=#6c8ebf;" vertex="1" parent="1">
          <mxGeometry x="440" y="530" width="150" height="50" as="geometry" />
        </mxCell>
        <mxCell id="Cg_n_9xX_iZ1i6xH1ZP4-62" value="" style="endArrow=classic;html=1;rounded=0;" edge="1" parent="1">
          <mxGeometry width="50" height="50" relative="1" as="geometry">
            <mxPoint x="522.38" y="350" as="sourcePoint" />
            <mxPoint x="510" y="530" as="targetPoint" />
            <Array as="points">
              <mxPoint x="522.38" y="350" />
              <mxPoint x="522.38" y="340" />
            </Array>
          </mxGeometry>
        </mxCell>
        <mxCell id="Cg_n_9xX_iZ1i6xH1ZP4-68" value="" style="endArrow=classic;html=1;rounded=0;entryX=0.6;entryY=-0.036;entryDx=0;entryDy=0;entryPerimeter=0;exitX=0;exitY=1;exitDx=0;exitDy=0;" edge="1" parent="1">
          <mxGeometry width="50" height="50" relative="1" as="geometry">
            <mxPoint x="1129.7157287525379" y="730.0042712474622" as="sourcePoint" />
            <mxPoint x="170" y="1109.92" as="targetPoint" />
          </mxGeometry>
        </mxCell>
        <mxCell id="Cg_n_9xX_iZ1i6xH1ZP4-69" value="" style="endArrow=classic;html=1;rounded=0;entryX=0.688;entryY=-0.036;entryDx=0;entryDy=0;entryPerimeter=0;" edge="1" parent="1" target="Cg_n_9xX_iZ1i6xH1ZP4-50">
          <mxGeometry width="50" height="50" relative="1" as="geometry">
            <mxPoint x="500" y="320" as="sourcePoint" />
            <mxPoint x="320" y="390" as="targetPoint" />
          </mxGeometry>
        </mxCell>
        <mxCell id="Cg_n_9xX_iZ1i6xH1ZP4-79" value="" style="endArrow=classic;html=1;rounded=0;entryX=0;entryY=0.5;entryDx=0;entryDy=0;" edge="1" parent="1" target="Cg_n_9xX_iZ1i6xH1ZP4-38">
          <mxGeometry width="50" height="50" relative="1" as="geometry">
            <mxPoint x="580" y="290" as="sourcePoint" />
            <mxPoint x="630" y="240" as="targetPoint" />
            <Array as="points">
              <mxPoint x="570" y="290" />
            </Array>
          </mxGeometry>
        </mxCell>
        <mxCell id="Cg_n_9xX_iZ1i6xH1ZP4-84" value="" style="endArrow=classic;html=1;rounded=0;entryX=0;entryY=0.5;entryDx=0;entryDy=0;" edge="1" parent="1" target="Cg_n_9xX_iZ1i6xH1ZP4-40">
          <mxGeometry width="50" height="50" relative="1" as="geometry">
            <mxPoint x="570" y="310" as="sourcePoint" />
            <mxPoint x="620" y="260" as="targetPoint" />
          </mxGeometry>
        </mxCell>
        <mxCell id="Cg_n_9xX_iZ1i6xH1ZP4-85" value="" style="endArrow=classic;html=1;rounded=0;entryX=0;entryY=0.5;entryDx=0;entryDy=0;exitX=1;exitY=1;exitDx=0;exitDy=0;" edge="1" parent="1">
          <mxGeometry width="50" height="50" relative="1" as="geometry">
            <mxPoint x="563.2842712474621" y="320.00427124746216" as="sourcePoint" />
            <mxPoint x="670" y="401.72" as="targetPoint" />
          </mxGeometry>
        </mxCell>
        <mxCell id="Cg_n_9xX_iZ1i6xH1ZP4-86" value="" style="endArrow=classic;html=1;rounded=0;entryX=0;entryY=0.5;entryDx=0;entryDy=0;" edge="1" parent="1" target="Cg_n_9xX_iZ1i6xH1ZP4-49">
          <mxGeometry width="50" height="50" relative="1" as="geometry">
            <mxPoint x="550" y="340" as="sourcePoint" />
            <mxPoint x="600" y="290" as="targetPoint" />
          </mxGeometry>
        </mxCell>
        <mxCell id="Cg_n_9xX_iZ1i6xH1ZP4-87" value="" style="endArrow=classic;html=1;rounded=0;entryX=0;entryY=0.5;entryDx=0;entryDy=0;" edge="1" parent="1" target="Cg_n_9xX_iZ1i6xH1ZP4-57">
          <mxGeometry width="50" height="50" relative="1" as="geometry">
            <mxPoint x="540" y="350" as="sourcePoint" />
            <mxPoint x="590" y="300" as="targetPoint" />
            <Array as="points">
              <mxPoint x="530" y="340" />
            </Array>
          </mxGeometry>
        </mxCell>
        <mxCell id="Cg_n_9xX_iZ1i6xH1ZP4-96" value="Admin" style="text;html=1;align=center;verticalAlign=middle;resizable=0;points=[];autosize=1;strokeColor=none;fillColor=none;" vertex="1" parent="1">
          <mxGeometry x="145" y="140" width="60" height="30" as="geometry" />
        </mxCell>
        <mxCell id="Cg_n_9xX_iZ1i6xH1ZP4-97" value="Forgot&amp;nbsp;&lt;div&gt;Password&lt;/div&gt;" style="text;html=1;align=center;verticalAlign=middle;resizable=0;points=[];autosize=1;strokeColor=none;fillColor=none;" vertex="1" parent="1">
          <mxGeometry x="140" y="255" width="80" height="40" as="geometry" />
        </mxCell>
        <mxCell id="Cg_n_9xX_iZ1i6xH1ZP4-98" value="Send Email&lt;div&gt;to User&lt;/div&gt;" style="text;html=1;align=center;verticalAlign=middle;resizable=0;points=[];autosize=1;strokeColor=none;fillColor=none;" vertex="1" parent="1">
          <mxGeometry x="140" y="395" width="80" height="40" as="geometry" />
        </mxCell>
        <mxCell id="Cg_n_9xX_iZ1i6xH1ZP4-104" value="Manage System&lt;div&gt;Admins&lt;/div&gt;" style="text;html=1;align=center;verticalAlign=middle;resizable=0;points=[];autosize=1;strokeColor=none;fillColor=none;" vertex="1" parent="1">
          <mxGeometry x="60" y="530" width="110" height="40" as="geometry" />
        </mxCell>
        <mxCell id="Cg_n_9xX_iZ1i6xH1ZP4-106" value="Manage Role&amp;nbsp;&lt;div&gt;of User&lt;/div&gt;" style="text;html=1;align=center;verticalAlign=middle;resizable=0;points=[];autosize=1;strokeColor=none;fillColor=none;" vertex="1" parent="1">
          <mxGeometry x="280" y="535" width="100" height="40" as="geometry" />
        </mxCell>
        <mxCell id="Cg_n_9xX_iZ1i6xH1ZP4-110" value="Manage User&lt;div&gt;Permission&lt;/div&gt;" style="text;html=1;align=center;verticalAlign=middle;resizable=0;points=[];autosize=1;strokeColor=none;fillColor=none;" vertex="1" parent="1">
          <mxGeometry x="465" y="535" width="100" height="40" as="geometry" />
        </mxCell>
        <mxCell id="Cg_n_9xX_iZ1i6xH1ZP4-111" value="Check&amp;nbsp;&lt;div&gt;Credentials&lt;/div&gt;" style="text;html=1;align=center;verticalAlign=middle;resizable=0;points=[];autosize=1;strokeColor=none;fillColor=none;" vertex="1" parent="1">
          <mxGeometry x="305" y="280" width="80" height="40" as="geometry" />
        </mxCell>
        <mxCell id="Cg_n_9xX_iZ1i6xH1ZP4-112" value="Login to&amp;nbsp;&lt;div&gt;system&lt;/div&gt;" style="text;html=1;align=center;verticalAlign=middle;resizable=0;points=[];autosize=1;strokeColor=none;fillColor=none;" vertex="1" parent="1">
          <mxGeometry x="310" y="132.5" width="70" height="40" as="geometry" />
        </mxCell>
        <mxCell id="Cg_n_9xX_iZ1i6xH1ZP4-113" value="Check&lt;div&gt;Rules of&lt;/div&gt;&lt;div&gt;Access&lt;/div&gt;" style="text;html=1;align=center;verticalAlign=middle;resizable=0;points=[];autosize=1;strokeColor=none;fillColor=none;" vertex="1" parent="1">
          <mxGeometry x="500" y="122.5" width="70" height="60" as="geometry" />
        </mxCell>
        <mxCell id="Cg_n_9xX_iZ1i6xH1ZP4-114" value="Manages&amp;nbsp;&lt;div&gt;Modules&lt;/div&gt;" style="text;html=1;align=center;verticalAlign=middle;resizable=0;points=[];autosize=1;strokeColor=none;fillColor=none;" vertex="1" parent="1">
          <mxGeometry x="495" y="280" width="80" height="40" as="geometry" />
        </mxCell>
        <mxCell id="Cg_n_9xX_iZ1i6xH1ZP4-117" value="Manage Attendence&lt;div&gt;Details&lt;/div&gt;" style="text;html=1;align=center;verticalAlign=middle;resizable=0;points=[];autosize=1;strokeColor=none;fillColor=none;" vertex="1" parent="1">
          <mxGeometry x="675" y="215" width="130" height="40" as="geometry" />
        </mxCell>
        <mxCell id="Cg_n_9xX_iZ1i6xH1ZP4-119" value="Manage Class Details" style="text;html=1;align=center;verticalAlign=middle;resizable=0;points=[];autosize=1;strokeColor=none;fillColor=none;" vertex="1" parent="1">
          <mxGeometry x="670" y="275" width="140" height="30" as="geometry" />
        </mxCell>
        <mxCell id="Cg_n_9xX_iZ1i6xH1ZP4-120" value="Manage Student&lt;div&gt;Details&lt;/div&gt;" style="text;html=1;align=center;verticalAlign=middle;resizable=0;points=[];autosize=1;strokeColor=none;fillColor=none;" vertex="1" parent="1">
          <mxGeometry x="690" y="330" width="110" height="40" as="geometry" />
        </mxCell>
        <mxCell id="Cg_n_9xX_iZ1i6xH1ZP4-123" value="Manage Fees Details" style="text;html=1;align=center;verticalAlign=middle;resizable=0;points=[];autosize=1;strokeColor=none;fillColor=none;" vertex="1" parent="1">
          <mxGeometry x="670" y="400" width="140" height="30" as="geometry" />
        </mxCell>
        <mxCell id="Cg_n_9xX_iZ1i6xH1ZP4-124" value="Manage Teacher&amp;nbsp;&lt;div&gt;Profiles&lt;/div&gt;" style="text;html=1;align=center;verticalAlign=middle;resizable=0;points=[];autosize=1;strokeColor=none;fillColor=none;" vertex="1" parent="1">
          <mxGeometry x="680" y="450" width="120" height="40" as="geometry" />
        </mxCell>
        <mxCell id="Cg_n_9xX_iZ1i6xH1ZP4-125" value="Manage Report" style="text;html=1;align=center;verticalAlign=middle;resizable=0;points=[];autosize=1;strokeColor=none;fillColor=none;" vertex="1" parent="1">
          <mxGeometry x="695" y="515" width="110" height="30" as="geometry" />
        </mxCell>
        <mxCell id="Cg_n_9xX_iZ1i6xH1ZP4-128" value="&lt;span style=&quot;font-size: 16px;&quot;&gt;Student Information System&lt;/span&gt;" style="text;html=1;align=center;verticalAlign=middle;resizable=0;points=[];autosize=1;strokeColor=none;fillColor=none;" vertex="1" parent="1">
          <mxGeometry x="310" y="35" width="220" height="30" as="geometry" />
        </mxCell>
        <mxCell id="Cg_n_9xX_iZ1i6xH1ZP4-131" value="" style="ellipse;whiteSpace=wrap;html=1;aspect=fixed;fillColor=#dae8fc;strokeColor=#6c8ebf;" vertex="1" parent="1">
          <mxGeometry x="493" y="255" width="80" height="80" as="geometry" />
        </mxCell>
        <mxCell id="Cg_n_9xX_iZ1i6xH1ZP4-132" value="" style="endArrow=classic;html=1;rounded=0;entryX=0.5;entryY=0;entryDx=0;entryDy=0;exitX=0.213;exitY=0.938;exitDx=0;exitDy=0;exitPerimeter=0;" edge="1" parent="1" source="Cg_n_9xX_iZ1i6xH1ZP4-131" target="Cg_n_9xX_iZ1i6xH1ZP4-58">
          <mxGeometry width="50" height="50" relative="1" as="geometry">
            <mxPoint x="380" y="450" as="sourcePoint" />
            <mxPoint x="430" y="400" as="targetPoint" />
          </mxGeometry>
        </mxCell>
        <mxCell id="Cg_n_9xX_iZ1i6xH1ZP4-133" value="Manage Timetable&lt;div&gt;Details&lt;/div&gt;" style="text;html=1;align=center;verticalAlign=middle;resizable=0;points=[];autosize=1;strokeColor=none;fillColor=none;" vertex="1" parent="1">
          <mxGeometry x="680" y="152.5" width="120" height="40" as="geometry" />
        </mxCell>
        <mxCell id="Cg_n_9xX_iZ1i6xH1ZP4-135" value="Manage&lt;div&gt;Modules&lt;/div&gt;" style="text;html=1;align=center;verticalAlign=middle;resizable=0;points=[];autosize=1;strokeColor=none;fillColor=none;" vertex="1" parent="1">
          <mxGeometry x="498" y="275" width="70" height="40" as="geometry" />
        </mxCell>
      </root>
    </mxGraphModel>
  </diagram>
</mxfile>
